<svg width="221" height="64" viewBox="0 0 221 64" fill="none" xmlns="http://www.w3.org/2000/svg">
<path d="M212.332 64H8.62862C4.14917 64 0.480469 60.4181 0.480469 56.0446V8.31236C0.480469 3.93889 4.14917 0.356985 8.62862 0.356985H212.332C216.812 0.356985 220.48 3.93889 220.48 8.31236V56.0446C220.48 60.4181 216.812 64 212.332 64Z" fill="black"/>
<path fill-rule="evenodd" clip-rule="evenodd" d="M44.6561 11H26.3004C17.6466 11 14.4805 14.1655 14.4805 22.8175V41.1825C14.4805 49.8345 17.6466 53 26.3004 53H44.6561C53.3099 53 56.4804 49.8345 56.4804 41.1825V22.8175C56.4893 14.1655 53.3232 11 44.6561 11Z" fill="#C8102E"/>
<path d="M22.7945 32H23.9088V37.4954H22.7945V35.2627H20.2784V37.4954H19.1641V32H20.2784V34.2105H22.7945V32ZM29.0737 35.1434C29.0737 36.0276 28.6315 36.5139 27.8267 36.5139C27.0219 36.5139 26.5709 36.0276 26.5709 35.0947V32H25.4565V35.1389C25.4565 36.6819 26.3144 37.5661 27.809 37.5661C29.3037 37.5661 30.1881 36.6819 30.1881 35.0903V32H29.0737V35.1434ZM41.9505 35.7756L40.7035 32H39.7882L38.55 35.78L37.334 32H36.1489L38.0636 37.4954H38.9878L40.2304 33.8878L41.4774 37.4954H42.4104L44.3251 32H43.1666L41.9505 35.7756ZM46.3195 35.1257H48.3491V34.1309H46.3195V33.008H49.2645V32H45.2228V37.4821H49.3706V36.4918H46.3195V35.1257ZM50.6972 37.4821H51.7983V32H50.6972V37.4821ZM32.3902 36.3459L31.8905 37.4865H30.7541L33.1552 32H34.1369L36.5469 37.4865H35.3972L34.924 36.3503L32.3902 36.3459ZM32.8059 35.3556H34.4818L33.6416 33.3926L32.8059 35.3556Z" fill="white"/>
<path d="M35.4873 25.0053C33.6334 25.0041 31.8559 24.2673 30.545 22.9568C29.2342 21.6462 28.4973 19.869 28.4961 18.0156H29.4822C29.4822 19.6079 30.1149 21.135 31.241 22.2609C32.3672 23.3869 33.8946 24.0194 35.4873 24.0194C37.0799 24.0194 38.6073 23.3869 39.7335 22.2609C40.8596 21.135 41.4923 19.6079 41.4923 18.0156H42.4784C42.4772 19.869 41.7403 21.6462 40.4295 22.9568C39.1186 24.2673 37.3411 25.0041 35.4873 25.0053Z" fill="white"/>
<path d="M212.332 1.282C216.105 1.282 219.175 4.29601 219.175 8V56C219.175 59.704 216.105 62.718 212.332 62.718H8.62862C4.85602 62.718 1.78621 59.704 1.78621 56V8C1.78621 4.29601 4.85602 1.282 8.62862 1.282H212.332ZM212.332 3.38236e-06H8.62862C4.14917 3.38236e-06 0.480469 3.602 0.480469 8V56C0.480469 60.398 4.14917 64 8.62862 64H212.332C216.812 64 220.48 60.398 220.48 56V8C220.48 3.602 216.812 3.38236e-06 212.332 3.38236e-06Z" fill="#A6A6A6"/>
<path d="M78.2583 41.8011H71.2569L69.5573 46.5142H66.4805L73.3267 28.9062H76.2323L83.2337 46.5142H80.0136L78.2583 41.8011ZM72.1485 39.3924H77.3627L75.496 34.35C75.2412 33.6555 74.9865 32.8847 74.7397 32.0416C74.5128 32.7884 74.266 33.5471 74.0033 34.3259L72.1485 39.3924Z" fill="white"/>
<path d="M84.4725 36.6095C84.4725 35.6379 84.4406 34.5674 84.377 33.3978H87.1632C87.2679 33.9483 87.3397 34.5047 87.3781 35.0639C87.8656 34.4746 88.4738 33.9987 89.1609 33.6688C89.8479 33.339 90.5976 33.163 91.3585 33.1529C92.2506 33.1387 93.1267 33.3931 93.8747 33.8837C94.6227 34.3743 95.2087 35.0787 95.5578 35.9069C96.0474 37.0455 96.2799 38.2797 96.2384 39.52C96.2687 40.8725 95.9966 42.2144 95.4423 43.4463C94.9786 44.4687 94.2216 45.3273 93.2691 45.9113C92.289 46.4825 91.1727 46.7726 90.041 46.7503C89.1504 46.7498 88.2663 46.5978 87.4259 46.3007V51.7324L84.4486 51.9894L84.4725 36.6095ZM92.2978 43.3018C92.9029 42.4989 93.2093 41.2945 93.2093 39.6887C93.2093 38.2247 92.9573 37.1541 92.4531 36.477C92.2253 36.1623 91.9252 35.908 91.5786 35.736C91.2319 35.564 90.8491 35.4794 90.4629 35.4894C89.9067 35.4819 89.3581 35.6202 88.8708 35.8909C88.3531 36.1866 87.8822 36.5587 87.4737 36.9949V44.0204C87.8035 44.1773 88.151 44.2932 88.5086 44.3657C88.8931 44.4496 89.2853 44.4926 89.6788 44.4941C90.1784 44.5243 90.6779 44.4316 91.1342 44.2238C91.5904 44.0161 91.9898 43.6997 92.2978 43.3018Z" fill="white"/>
<path d="M98.0467 36.6095C98.0467 35.6379 98.0149 34.5674 97.9512 33.3978H100.737C100.845 33.9479 100.918 34.5044 100.956 35.0639C102.116 33.7899 103.443 33.1529 104.937 33.1529C105.829 33.1387 106.705 33.3931 107.453 33.8837C108.201 34.3743 108.787 35.0787 109.136 35.9069C109.626 37.0455 109.858 38.2797 109.817 39.52C109.853 40.871 109.588 42.2128 109.04 43.4463C108.576 44.4693 107.817 45.328 106.863 45.9113C105.883 46.4831 104.767 46.7732 103.635 46.7503C102.745 46.7498 101.86 46.5978 101.02 46.3007V51.7324L98.0427 51.9894L98.0467 36.6095ZM105.884 43.3018C106.489 42.4801 106.792 41.2758 106.792 39.6887C106.792 38.2247 106.541 37.1541 106.039 36.477C105.811 36.1623 105.511 35.908 105.165 35.736C104.818 35.564 104.435 35.4794 104.049 35.4894C103.493 35.4826 102.944 35.6209 102.457 35.8909C101.939 36.1866 101.468 36.5587 101.06 36.9949V44.0204C101.39 44.1761 101.737 44.292 102.095 44.3657C102.479 44.4496 102.871 44.4926 103.265 44.4941C103.765 44.5236 104.264 44.4306 104.72 44.2229C105.176 44.0152 105.575 43.6992 105.884 43.3018Z" fill="white"/>
<path d="M115.292 45.6828C114.02 44.9792 112.987 43.9064 112.327 42.6036C111.605 41.1314 111.25 39.5041 111.292 37.8623C111.24 36.1058 111.652 34.3671 112.486 32.824C113.239 31.485 114.369 30.402 115.734 29.7127C117.168 29.006 118.747 28.6497 120.343 28.6729C121.311 28.6687 122.276 28.7819 123.217 29.0102C124.097 29.2192 124.952 29.5262 125.764 29.9255L124.992 32.2339C123.584 31.5175 122.035 31.128 120.459 31.0937C119.346 31.075 118.248 31.3519 117.274 31.8967C116.351 32.4313 115.609 33.2344 115.145 34.201C114.611 35.3475 114.352 36.6044 114.389 37.8704C114.369 39.011 114.566 40.1448 114.97 41.2105C115.336 42.1538 115.981 42.9609 116.817 43.5229C117.769 44.1238 118.879 44.4204 120.001 44.374C120.582 44.3726 121.163 44.3229 121.736 44.2255C122.291 44.1365 122.836 43.994 123.364 43.7999V40.2189H119.328V37.8864H126.258V45.3094C125.253 45.782 124.2 46.144 123.118 46.3893C122.044 46.6387 120.947 46.7652 119.846 46.7667C118.261 46.8051 116.693 46.4318 115.292 45.6828Z" fill="white"/>
<path d="M136.832 46.5155C136.719 45.9422 136.65 45.3611 136.625 44.7772C136.128 45.3607 135.52 45.8383 134.838 46.1823C134.068 46.5759 133.214 46.7743 132.35 46.7604C131.644 46.7694 130.944 46.617 130.304 46.3148C129.696 46.0268 129.187 45.5611 128.844 44.9779C128.463 44.317 128.274 43.5617 128.298 42.798C128.276 42.2187 128.388 41.6421 128.625 41.1139C128.862 40.5857 129.217 40.1204 129.663 39.7549C130.571 38.9948 132.085 38.6161 134.205 38.6188C134.995 38.6184 135.784 38.6748 136.565 38.7874V38.5305C136.565 37.3743 136.321 36.558 135.833 36.0816C135.249 35.575 134.492 35.3198 133.723 35.371C133.035 35.3794 132.351 35.4738 131.685 35.652C131.026 35.8123 130.384 36.0354 129.767 36.3184L129.297 34.1345C129.972 33.8439 130.673 33.6194 131.391 33.4641C132.293 33.2582 133.216 33.1559 134.141 33.1589C135.122 33.1319 136.097 33.3082 137.007 33.6768C137.808 34.0338 138.459 34.6614 138.85 35.4513C139.339 36.509 139.567 37.67 139.515 38.8356V44.0545C139.515 44.5898 139.547 45.4115 139.61 46.5195L136.832 46.5155ZM135.049 44.1067C135.623 43.8378 136.138 43.4572 136.565 42.9867V40.5779C135.905 40.4991 135.24 40.4549 134.575 40.4454C133.347 40.4454 132.496 40.6462 132.024 41.0476C131.793 41.2439 131.61 41.4905 131.488 41.7687C131.366 42.0469 131.308 42.3494 131.319 42.6535C131.298 42.9161 131.332 43.1804 131.421 43.4284C131.51 43.6764 131.65 43.9022 131.833 44.0907C132.221 44.4207 132.719 44.5887 133.226 44.5604C133.86 44.5507 134.483 44.3956 135.049 44.1067Z" fill="white"/>
<path d="M141.815 43.37V27.8737L144.776 27.6328V42.8361C144.734 43.2581 144.834 43.6822 145.059 44.0404C145.173 44.1638 145.313 44.2594 145.469 44.3199C145.625 44.3804 145.792 44.4043 145.958 44.3897C146.228 44.3779 146.496 44.3321 146.755 44.2532L147.105 46.405C146.772 46.5319 146.426 46.6234 146.074 46.678C145.694 46.7445 145.309 46.7794 144.924 46.7824C142.851 46.769 141.815 45.6316 141.815 43.37Z" fill="white"/>
<path d="M149.224 43.37V27.8737L152.189 27.6328V42.8361C152.147 43.2581 152.246 43.6822 152.472 44.0404C152.585 44.1638 152.725 44.2594 152.881 44.3199C153.037 44.3804 153.205 44.4043 153.371 44.3897C153.641 44.3779 153.909 44.3321 154.167 44.2532L154.514 46.405C154.182 46.532 153.837 46.6235 153.487 46.678C153.105 46.7447 152.719 46.7796 152.332 46.7824C150.263 46.769 149.226 45.6316 149.224 43.37Z" fill="white"/>
<path d="M166.693 40.3384H158.187C158.322 43.0871 159.62 44.4614 162.08 44.4614C162.711 44.4581 163.34 44.3827 163.954 44.2366C164.582 44.0893 165.196 43.8878 165.789 43.6344L166.442 45.6898C164.91 46.4183 163.232 46.7836 161.538 46.7577C160.325 46.7931 159.122 46.5168 158.044 45.9548C157.109 45.4455 156.359 44.6497 155.902 43.6826C155.397 42.5621 155.152 41.34 155.186 40.1096C155.153 38.8202 155.413 37.5403 155.946 36.368C156.401 35.3731 157.136 34.5353 158.06 33.9592C159.006 33.3967 160.089 33.1104 161.188 33.1322C162.278 33.0933 163.354 33.3978 164.265 34.0034C165.086 34.5785 165.723 35.3838 166.096 36.3198C166.506 37.3393 166.709 38.4314 166.693 39.5315V40.3384ZM163.791 38.4315C163.797 37.5791 163.516 36.7499 162.995 36.0789C162.762 35.815 162.473 35.6063 162.151 35.4675C161.828 35.3288 161.479 35.2634 161.128 35.276C160.776 35.2687 160.425 35.3364 160.1 35.4747C159.775 35.6131 159.483 35.8189 159.242 36.0789C158.68 36.7384 158.337 37.5579 158.259 38.4234L163.791 38.4315Z" fill="white"/>
<path d="M168.946 36.6943C168.946 35.9757 168.91 34.8757 168.847 33.4024H171.633C171.681 33.7677 171.724 34.2053 171.772 34.7071C171.82 35.2089 171.844 35.6265 171.86 35.9436C172.16 35.4319 172.5 34.9459 172.879 34.4903C173.207 34.101 173.604 33.7758 174.049 33.5308C174.517 33.2761 175.042 33.1475 175.573 33.1575C175.977 33.1476 176.379 33.1976 176.768 33.306L176.393 35.9075C175.927 35.7714 175.438 35.7368 174.957 35.806C174.477 35.8752 174.017 36.0467 173.607 36.3089C172.948 36.8028 172.374 37.4022 171.908 38.0834V46.514H168.946V36.6943Z" fill="white"/>
<path d="M178.425 51.8815C178.062 51.8223 177.704 51.735 177.354 51.6205L177.896 49.4326C178.146 49.5006 178.4 49.5555 178.656 49.5972C178.943 49.6485 179.233 49.6754 179.524 49.6775C180.851 49.6775 181.838 48.8224 182.485 47.1122L182.68 46.6264L177.884 33.4023H181.068L183.504 40.7932C183.816 41.7439 184.068 42.7133 184.26 43.6957C184.487 42.7483 184.75 41.8009 185.056 40.8534L187.484 33.4023H190.482L185.705 46.6866C185.345 47.7566 184.854 48.7774 184.244 49.7257C183.78 50.4419 183.145 51.0297 182.398 51.4359C181.597 51.8303 180.713 52.0231 179.822 51.9979C179.354 51.9997 178.887 51.9608 178.425 51.8815Z" fill="white"/>
<path d="M66.4805 12.1445H71.7743L71.6271 13.4372H68.0248V15.9383H71.4201V17.1427H68.0248V19.9128H71.8181L71.6868 21.2255H66.4805V12.1445Z" fill="white"/>
<path d="M75.4333 16.5927L72.6471 12.1445H74.4144L76.309 15.4124L78.2992 12.1445H80.0147L77.2285 16.5365L80.2416 21.2255H78.4504L76.305 17.6525L74.1198 21.2255H72.4043L75.4333 16.5927Z" fill="white"/>
<path d="M81.3838 12.1445H83.8118C84.9502 12.1445 85.8232 12.3787 86.4309 12.8471C86.7331 13.087 86.9735 13.3969 87.1315 13.7506C87.2895 14.1043 87.3605 14.4912 87.3384 14.8785C87.3552 15.4316 87.2173 15.9784 86.9403 16.4562C86.6701 16.9054 86.2759 17.2653 85.806 17.492C85.2838 17.7409 84.7116 17.8646 84.1342 17.8533C83.7333 17.8476 83.3337 17.8059 82.9401 17.7288V21.2255H81.3838V12.1445ZM85.2845 16.1993C85.4543 16.0348 85.5868 15.8351 85.6727 15.614C85.7586 15.3929 85.7959 15.1557 85.7821 14.9186C85.8023 14.6914 85.7668 14.4627 85.6786 14.2527C85.5905 14.0426 85.4524 13.8577 85.2766 13.7142C84.8286 13.4391 84.3073 13.3101 83.7839 13.3449H82.9401V16.5566C83.2359 16.6103 83.5353 16.6412 83.8357 16.6489C84.3575 16.6884 84.875 16.5278 85.2845 16.1993Z" fill="white"/>
<path d="M88.8745 12.1445H90.4269V19.8847H94.1525L94.0211 21.2255H88.8745V12.1445Z" fill="white"/>
<path d="M96.5178 20.7787C95.8654 20.4084 95.3384 19.8489 95.0053 19.1728C94.6432 18.4234 94.4644 17.5975 94.4839 16.7641C94.4648 15.8932 94.6561 15.0307 95.0411 14.2509C95.3941 13.5481 95.9489 12.9688 96.6332 12.5889C97.3993 12.1842 98.2567 11.9877 99.121 12.0188C99.9381 11.9967 100.747 12.1919 101.465 12.5849C102.114 12.9564 102.637 13.5159 102.966 14.1907C103.321 14.9323 103.497 15.7481 103.479 16.5714C103.501 17.452 103.308 18.3245 102.918 19.1126C102.562 19.813 102.008 20.3913 101.326 20.7746C100.573 21.1785 99.7305 21.3803 98.8782 21.3608C98.0541 21.3818 97.2393 21.1808 96.5178 20.7787ZM100.546 19.6666C100.985 19.3733 101.326 18.9537 101.525 18.4622C101.748 17.8996 101.858 17.2977 101.848 16.6918C101.857 16.097 101.76 15.5053 101.561 14.9455C101.382 14.4605 101.063 14.0409 100.645 13.7411C100.161 13.442 99.6036 13.2837 99.0354 13.2837C98.4672 13.2837 97.91 13.442 97.4253 13.7411C96.9853 14.049 96.6426 14.4783 96.4382 14.9776C96.2117 15.517 96.0992 16.0981 96.1078 16.6838C96.0982 17.2872 96.2036 17.8869 96.4183 18.4502C96.609 18.9656 96.9576 19.4062 97.4136 19.708C97.8696 20.0098 98.4091 20.157 98.9538 20.1283C99.5188 20.1423 100.075 19.9812 100.546 19.6666Z" fill="white"/>
<path d="M105.208 12.1422H108.026C108.852 12.0833 109.673 12.3021 110.363 12.7645C110.627 12.9739 110.837 13.2445 110.976 13.5534C111.115 13.8623 111.177 14.2004 111.159 14.5389C111.168 14.9791 111.07 15.4149 110.872 15.8076C110.699 16.1519 110.458 16.4566 110.164 16.7028C109.9 16.9173 109.605 17.0881 109.288 17.2086L112.074 21.2232H110.263L107.919 17.6101H106.776V21.2232H105.208V12.1422ZM107.648 16.4378C107.994 16.4455 108.336 16.3698 108.647 16.217C108.927 16.0814 109.163 15.8684 109.328 15.6028C109.492 15.3193 109.576 14.9957 109.57 14.6674C109.587 14.4779 109.556 14.2874 109.481 14.1129C109.406 13.9384 109.289 13.7855 109.141 13.6678C108.767 13.4321 108.33 13.3212 107.891 13.3506H106.764V16.4539L107.648 16.4378Z" fill="white"/>
<path d="M113.291 12.1445H118.597L118.446 13.4372H114.863V15.9383H118.227V17.1427H114.831V19.9128H118.625L118.509 21.2255H113.291V12.1445Z" fill="white"/>
<path d="M124.363 12.1445H125.915V21.2255H124.363V12.1445Z" fill="white"/>
<path d="M130.029 13.4533H127.243L127.378 12.1445H134.384L134.241 13.4533H131.586V21.2255H130.029V13.4533Z" fill="white"/>
<path d="M141.13 20.7776C140.479 20.4071 139.953 19.8476 139.622 19.1718C139.256 18.4234 139.076 17.5969 139.096 16.763C139.077 15.8921 139.268 15.0296 139.654 14.2499C140.007 13.5477 140.562 12.9688 141.246 12.5878C142.006 12.1811 142.857 11.9793 143.717 12.0017C144.544 11.9792 145.362 12.1802 146.086 12.5838C146.735 12.9542 147.258 13.514 147.586 14.1896C147.943 14.9309 148.12 15.7467 148.104 16.5703C148.126 17.4514 147.932 18.3244 147.539 19.1115C147.183 19.8128 146.629 20.3914 145.946 20.7736C145.194 21.1784 144.351 21.3803 143.499 21.3597C142.672 21.3822 141.854 21.1812 141.13 20.7776ZM145.162 19.6655C145.599 19.3709 145.939 18.9516 146.137 18.4612C146.361 17.8986 146.47 17.2967 146.46 16.6907C146.47 16.0959 146.373 15.5042 146.173 14.9444C145.996 14.4598 145.679 14.0401 145.262 13.74C144.777 13.4405 144.219 13.2821 143.65 13.2821C143.081 13.2821 142.523 13.4405 142.038 13.74C141.598 14.0479 141.255 14.4772 141.051 14.9765C140.826 15.5165 140.714 16.0972 140.72 16.6827C140.711 17.2861 140.816 17.8858 141.031 18.4491C141.221 18.9443 141.552 19.3718 141.982 19.6776C142.453 19.9913 143.01 20.1485 143.574 20.1272C144.138 20.1389 144.691 19.9779 145.162 19.6655Z" fill="white"/>
<path d="M149.828 12.1445H151.611L156.065 19.1821C156.026 18.5117 156.01 17.8974 156.01 17.3314V12.1445H157.45V21.2255H155.723L151.201 14.0755C151.245 14.8785 151.269 15.6051 151.269 16.2354V21.2255H149.828V12.1445Z" fill="white"/>
</svg>
