<svg width="221" height="64" viewBox="0 0 221 64" fill="none" xmlns="http://www.w3.org/2000/svg">
<path d="M220.48 57.6848C220.48 61.1738 217.661 64 214.174 64H7.79509C4.30963 64 1.48047 61.1738 1.48047 57.6848V7.32341C1.48047 3.83606 4.30963 1 7.79509 1H214.172C217.661 1 220.479 3.83606 220.479 7.32341L220.48 57.6848Z" fill="black"/>
<path d="M212.332 1.282C216.105 1.282 219.175 4.296 219.175 8V56C219.175 59.704 216.105 62.718 212.332 62.718H8.62862C4.85602 62.718 1.78621 59.704 1.78621 56V8C1.78621 4.296 4.85602 1.282 8.62862 1.282H212.332ZM212.332 -1.34181e-06H8.62862C4.14917 -1.34181e-06 0.480469 3.602 0.480469 8V56C0.480469 60.398 4.14917 64 8.62862 64H212.332C216.812 64 220.48 60.398 220.48 56V8C220.48 3.602 216.812 -1.34181e-06 212.332 -1.34181e-06Z" fill="#A6A6A6"/>
<path d="M49.9255 31.6642C49.878 26.5074 54.2562 23.9986 54.4564 23.8818C51.9768 20.357 48.1335 19.8754 46.783 19.837C43.5551 19.5058 40.424 21.7202 38.7797 21.7202C37.1026 21.7202 34.5705 19.869 31.8414 19.9234C28.3296 19.9762 25.0443 21.9586 23.2425 25.037C19.5239 31.3138 22.2972 40.5378 25.8599 45.6114C27.6421 48.0962 29.7245 50.8706 32.4503 50.773C35.1169 50.6658 36.113 49.1154 39.3311 49.1154C42.5196 49.1154 43.455 50.773 46.2349 50.7106C49.0968 50.6658 50.8987 48.2146 52.6185 45.7074C54.6779 42.8594 55.505 40.0546 55.5378 39.9106C55.4706 39.8882 49.9797 37.845 49.9255 31.6642Z" fill="white"/>
<path d="M44.6743 16.4994C46.1085 14.7506 47.0898 12.3714 46.8174 9.95703C44.7415 10.0466 42.1454 11.357 40.6505 13.0674C39.3278 14.5746 38.1463 17.045 38.4515 19.3682C40.7834 19.5378 43.1776 18.221 44.6743 16.4994Z" fill="white"/>
<path d="M88.5106 50.408H84.7839L82.7424 44.1536H75.6467L73.702 50.408H70.0737L77.1039 29.1152H81.446L88.5106 50.408ZM82.1271 41.5296L80.2809 35.9696C80.0856 35.4016 79.7197 34.064 79.1798 31.9584H79.1141C78.8992 32.864 78.5529 34.2016 78.077 35.9696L76.2637 41.5296H82.1271Z" fill="white"/>
<path d="M106.59 42.5493C106.59 45.1605 105.866 47.2245 104.419 48.7397C103.123 50.0885 101.513 50.7621 99.591 50.7621C97.5168 50.7621 96.0267 50.0357 95.1192 48.5829H95.0536V56.6709H91.5549V40.1157C91.5549 38.4741 91.5106 36.7893 91.4253 35.0613H94.5022L94.6975 37.4949H94.7631C95.9299 35.6613 97.7006 34.7461 100.077 34.7461C101.934 34.7461 103.485 35.4613 104.726 36.8933C105.97 38.3269 106.59 40.2117 106.59 42.5493ZM103.026 42.6741C103.026 41.1797 102.681 39.9477 101.989 38.9781C101.232 37.9669 100.216 37.4613 98.9428 37.4613C98.0796 37.4613 97.2952 37.7429 96.5945 38.2981C95.8922 38.8581 95.4327 39.5893 95.2177 40.4949C95.1094 40.9173 95.0552 41.2629 95.0552 41.5349V44.0949C95.0552 45.2117 95.4064 46.1541 96.1088 46.9237C96.8111 47.6933 97.7235 48.0773 98.846 48.0773C100.164 48.0773 101.189 47.5813 101.923 46.5925C102.658 45.6021 103.026 44.2965 103.026 42.6741Z" fill="white"/>
<path d="M124.702 42.5493C124.702 45.1605 123.978 47.2245 122.529 48.7397C121.235 50.0885 119.625 50.7621 117.703 50.7621C115.629 50.7621 114.139 50.0357 113.233 48.5829H113.167V56.6709H109.669V40.1157C109.669 38.4741 109.624 36.7893 109.539 35.0613H112.616L112.811 37.4949H112.877C114.042 35.6613 115.813 34.7461 118.191 34.7461C120.047 34.7461 121.597 35.4613 122.841 36.8933C124.08 38.3269 124.702 40.2117 124.702 42.5493ZM121.138 42.6741C121.138 41.1797 120.792 39.9477 120.099 38.9781C119.343 37.9669 118.33 37.4613 117.055 37.4613C116.19 37.4613 115.407 37.7429 114.705 38.2981C114.003 38.8581 113.545 39.5893 113.33 40.4949C113.223 40.9173 113.167 41.2629 113.167 41.5349V44.0949C113.167 45.2117 113.519 46.1541 114.218 46.9237C114.92 47.6917 115.832 48.0773 116.958 48.0773C118.276 48.0773 119.302 47.5813 120.035 46.5925C120.77 45.6021 121.138 44.2965 121.138 42.6741Z" fill="white"/>
<path d="M144.956 44.4383C144.956 46.2495 144.311 47.7231 143.016 48.8607C141.594 50.1039 139.613 50.7247 137.068 50.7247C134.718 50.7247 132.834 50.2831 131.408 49.3983L132.218 46.5551C133.754 47.4607 135.44 47.9151 137.276 47.9151C138.594 47.9151 139.619 47.6239 140.356 47.0447C141.09 46.4655 141.456 45.6879 141.456 44.7183C141.456 43.8543 141.154 43.1263 140.548 42.5359C139.946 41.9455 138.94 41.3967 137.535 40.8895C133.712 39.4991 131.802 37.4623 131.802 34.7839C131.802 33.0335 132.471 31.5983 133.812 30.4815C135.148 29.3631 136.93 28.8047 139.158 28.8047C141.146 28.8047 142.796 29.1423 144.114 29.8159L143.24 32.5967C142.009 31.9439 140.617 31.6175 139.06 31.6175C137.829 31.6175 136.867 31.9135 136.178 32.5023C135.596 33.0287 135.304 33.6703 135.304 34.4303C135.304 35.2719 135.637 35.9679 136.306 36.5151C136.889 37.0207 137.947 37.5679 139.483 38.1583C141.362 38.8959 142.742 39.7583 143.63 40.7471C144.515 41.7327 144.956 42.9663 144.956 44.4383Z" fill="white"/>
<path d="M156.523 37.6161H152.667V45.0705C152.667 46.9665 153.346 47.9137 154.708 47.9137C155.334 47.9137 155.852 47.8609 156.262 47.7553L156.359 50.3457C155.67 50.5969 154.762 50.7233 153.638 50.7233C152.257 50.7233 151.177 50.3121 150.397 49.4913C149.621 48.6689 149.231 47.2897 149.231 45.3521V37.6129H146.933V35.0529H149.231V32.2417L152.667 31.2305V35.0529H156.523V37.6161Z" fill="white"/>
<path d="M173.918 42.6101C173.918 44.9701 173.225 46.9077 171.843 48.4229C170.394 49.9829 168.471 50.7605 166.074 50.7605C163.763 50.7605 161.923 50.0133 160.551 48.5189C159.18 47.0245 158.494 45.1381 158.494 42.8645C158.494 40.4853 159.199 38.5365 160.615 37.0213C162.028 35.5045 163.935 34.7461 166.333 34.7461C168.643 34.7461 170.503 35.4933 171.906 36.9893C173.248 38.4405 173.918 40.3141 173.918 42.6101ZM170.288 42.7205C170.288 41.3045 169.978 40.0901 169.349 39.0773C168.615 37.8517 167.567 37.2405 166.208 37.2405C164.802 37.2405 163.733 37.8533 163 39.0773C162.371 40.0917 162.061 41.3253 162.061 42.7845C162.061 44.2005 162.371 45.4149 163 46.4261C163.756 47.6517 164.813 48.2629 166.177 48.2629C167.513 48.2629 168.561 47.6389 169.318 46.3941C169.963 45.3621 170.288 44.1349 170.288 42.7205Z" fill="white"/>
<path d="M185.291 38.0613C184.945 37.9989 184.576 37.9669 184.188 37.9669C182.958 37.9669 182.006 38.4197 181.336 39.3269C180.754 40.1269 180.462 41.1381 180.462 42.3589V50.4149H176.965L176.997 39.8965C176.997 38.1269 176.953 36.5157 176.866 35.0629H179.914L180.042 38.0005H180.138C180.508 36.9909 181.09 36.1781 181.888 35.5685C182.667 35.0197 183.509 34.7461 184.417 34.7461C184.74 34.7461 185.032 34.7685 185.291 34.8085V38.0613Z" fill="white"/>
<path d="M200.942 42.0044C200.942 42.6156 200.901 43.1308 200.814 43.5516H190.318C190.359 45.0684 190.866 46.2284 191.841 47.0284C192.725 47.7436 193.869 48.102 195.274 48.102C196.828 48.102 198.246 47.8604 199.521 47.3756L200.069 49.7436C198.579 50.3772 196.82 50.6924 194.79 50.6924C192.348 50.6924 190.431 49.9916 189.036 48.5916C187.645 47.1916 186.947 45.3116 186.947 42.9532C186.947 40.638 187.595 38.71 188.894 37.1724C190.252 35.5308 192.089 34.71 194.399 34.71C196.669 34.71 198.387 35.5308 199.554 37.1724C200.478 38.4764 200.942 40.0892 200.942 42.0044ZM197.606 41.1196C197.629 40.1084 197.401 39.2348 196.926 38.4972C196.321 37.5484 195.39 37.0748 194.138 37.0748C192.994 37.0748 192.064 37.5372 191.353 38.4652C190.771 39.2028 190.425 40.0876 190.318 41.118H197.606V41.1196Z" fill="white"/>
<path d="M80.98 16.0149C80.98 17.8981 80.4007 19.3157 79.2438 20.2677C78.1722 21.1461 76.6493 21.5861 74.6768 21.5861C73.6988 21.5861 72.8619 21.5445 72.1611 21.4613V11.1717C73.0752 11.0277 74.0598 10.9541 75.1232 10.9541C77.0022 10.9541 78.4184 11.3525 79.3734 12.1493C80.4434 13.0501 80.98 14.3381 80.98 16.0149ZM79.1667 16.0613C79.1667 14.8405 78.8352 13.9045 78.1722 13.2517C77.5092 12.6005 76.541 12.2741 75.266 12.2741C74.7244 12.2741 74.2633 12.3093 73.8809 12.3829V20.2053C74.0926 20.2373 74.4799 20.2517 75.0428 20.2517C76.3589 20.2517 77.3747 19.8949 78.0902 19.1813C78.8057 18.4677 79.1667 17.4277 79.1667 16.0613Z" fill="white"/>
<path d="M90.5942 17.6563C90.5942 18.8163 90.2545 19.7667 89.5751 20.5123C88.8629 21.2787 87.9193 21.6611 86.7411 21.6611C85.6055 21.6611 84.7013 21.2947 84.0268 20.5587C83.354 19.8243 83.0176 18.8979 83.0176 17.7811C83.0176 16.6131 83.3638 15.6547 84.0596 14.9107C84.7554 14.1667 85.6908 13.7939 86.8691 13.7939C88.0047 13.7939 88.9171 14.1603 89.6079 14.8947C90.2643 15.6083 90.5942 16.5299 90.5942 17.6563ZM88.8104 17.7107C88.8104 17.0147 88.6561 16.4179 88.3493 15.9203C87.9882 15.3187 87.4746 15.0179 86.8067 15.0179C86.1158 15.0179 85.5907 15.3187 85.2297 15.9203C84.9212 16.4179 84.7686 17.0243 84.7686 17.7411C84.7686 18.4371 84.9228 19.0339 85.2297 19.5315C85.6022 20.1331 86.1208 20.4339 86.7903 20.4339C87.4467 20.4339 87.962 20.1283 88.3329 19.5155C88.6512 19.0083 88.8104 18.4067 88.8104 17.7107Z" fill="white"/>
<path d="M103.484 13.9492L101.064 21.4916H99.4882L98.4855 18.2164C98.2312 17.3988 98.0244 16.586 97.8636 15.7796H97.8324C97.6831 16.6084 97.4763 17.4196 97.2104 18.2164L96.1454 21.4916H94.552L92.2759 13.9492H94.0433L94.9179 17.5348C95.1296 18.3828 95.3036 19.1908 95.4431 19.9556H95.4742C95.6022 19.3252 95.8139 18.522 96.1126 17.5508L97.2104 13.9508H98.6119L99.6638 17.474C99.9181 18.3332 100.125 19.1604 100.284 19.9572H100.332C100.448 19.1812 100.624 18.354 100.857 17.474L101.795 13.9508H103.484V13.9492Z" fill="white"/>
<path d="M112.402 21.4947H110.682V17.1747C110.682 15.8435 110.164 15.1779 109.124 15.1779C108.613 15.1779 108.201 15.3603 107.881 15.7267C107.565 16.0931 107.404 16.5251 107.404 17.0195V21.4931H105.684V16.1075C105.684 15.4451 105.663 14.7267 105.622 13.9491H107.133L107.213 15.1283H107.261C107.461 14.7619 107.76 14.4595 108.152 14.2179C108.618 13.9363 109.14 13.7939 109.711 13.7939C110.433 13.7939 111.034 14.0211 111.511 14.4771C112.105 15.0355 112.402 15.8691 112.402 16.9763V21.4947Z" fill="white"/>
<path d="M117.142 21.4925H115.424V10.4893H117.142V21.4925Z" fill="white"/>
<path d="M127.272 17.6563C127.272 18.8163 126.933 19.7667 126.253 20.5123C125.541 21.2787 124.596 21.6611 123.419 21.6611C122.282 21.6611 121.378 21.2947 120.705 20.5587C120.032 19.8243 119.696 18.8979 119.696 17.7811C119.696 16.6131 120.042 15.6547 120.738 14.9107C121.434 14.1667 122.369 13.7939 123.546 13.7939C124.683 13.7939 125.594 14.1603 126.286 14.8947C126.943 15.6083 127.272 16.5299 127.272 17.6563ZM125.487 17.7107C125.487 17.0147 125.333 16.4179 125.026 15.9203C124.666 15.3187 124.151 15.0179 123.485 15.0179C122.792 15.0179 122.267 15.3187 121.908 15.9203C121.599 16.4179 121.447 17.0243 121.447 17.7411C121.447 18.4371 121.601 19.0339 121.908 19.5315C122.28 20.1331 122.799 20.4339 123.469 20.4339C124.125 20.4339 124.639 20.1283 125.009 19.5155C125.329 19.0083 125.487 18.4067 125.487 17.7107Z" fill="white"/>
<path d="M135.594 21.4899H134.05L133.922 20.6211H133.875C133.346 21.3139 132.593 21.6611 131.615 21.6611C130.885 21.6611 130.294 21.4323 129.849 20.9779C129.446 20.5651 129.244 20.0515 129.244 19.4419C129.244 18.5203 129.637 17.8179 130.43 17.3315C131.221 16.8451 132.334 16.6067 133.766 16.6179V16.4771C133.766 15.4835 133.231 14.9875 132.16 14.9875C131.397 14.9875 130.724 15.1747 130.143 15.5459L129.793 14.4451C130.512 14.0115 131.4 13.7939 132.447 13.7939C134.469 13.7939 135.483 14.8339 135.483 16.9139V19.6915C135.483 20.4451 135.521 21.0451 135.594 21.4899ZM133.809 18.8979V17.7347C131.912 17.7027 130.963 18.2099 130.963 19.2547C130.963 19.6483 131.072 19.9427 131.293 20.1395C131.515 20.3363 131.797 20.4339 132.133 20.4339C132.511 20.4339 132.864 20.3171 133.185 20.0851C133.509 19.8515 133.707 19.5555 133.781 19.1923C133.799 19.1107 133.809 19.0115 133.809 18.8979Z" fill="white"/>
<path d="M145.366 21.4925H143.839L143.759 20.2813H143.711C143.224 21.2029 142.394 21.6637 141.227 21.6637C140.295 21.6637 139.519 21.3069 138.903 20.5933C138.288 19.8797 137.981 18.9533 137.981 17.8157C137.981 16.5949 138.314 15.6061 138.984 14.8509C139.632 14.1469 140.426 13.7949 141.371 13.7949C142.41 13.7949 143.137 14.1357 143.551 14.8189H143.583V10.4893H145.305V19.4605C145.305 20.1949 145.325 20.8717 145.366 21.4925ZM143.583 18.3117V17.0541C143.583 16.8365 143.567 16.6605 143.536 16.5261C143.439 16.1229 143.231 15.7837 142.914 15.5101C142.594 15.2365 142.208 15.0989 141.764 15.0989C141.122 15.0989 140.62 15.3469 140.25 15.8445C139.885 16.3421 139.699 16.9773 139.699 17.7533C139.699 18.4989 139.875 19.1037 140.228 19.5693C140.6 20.0653 141.102 20.3133 141.731 20.3133C142.295 20.3133 142.746 20.1069 143.089 19.6925C143.421 19.3101 143.583 18.8493 143.583 18.3117Z" fill="white"/>
<path d="M160.077 17.6563C160.077 18.8163 159.737 19.7667 159.058 20.5123C158.345 21.2787 157.403 21.6611 156.223 21.6611C155.09 21.6611 154.185 21.2947 153.509 20.5587C152.836 19.8243 152.5 18.8979 152.5 17.7811C152.5 16.6131 152.846 15.6547 153.542 14.9107C154.238 14.1667 155.173 13.7939 156.353 13.7939C157.487 13.7939 158.401 14.1603 159.09 14.8947C159.747 15.6083 160.077 16.5299 160.077 17.6563ZM158.294 17.7107C158.294 17.0147 158.14 16.4179 157.833 15.9203C157.471 15.3187 156.959 15.0179 156.289 15.0179C155.6 15.0179 155.075 15.3187 154.712 15.9203C154.404 16.4179 154.251 17.0243 154.251 17.7411C154.251 18.4371 154.405 19.0339 154.712 19.5315C155.085 20.1331 155.603 20.4339 156.273 20.4339C156.929 20.4339 157.446 20.1283 157.817 19.5155C158.134 19.0083 158.294 18.4067 158.294 17.7107Z" fill="white"/>
<path d="M169.321 21.4947H167.602V17.1747C167.602 15.8435 167.084 15.1779 166.042 15.1779C165.531 15.1779 165.12 15.3603 164.801 15.7267C164.483 16.0931 164.324 16.5251 164.324 17.0195V21.4931H162.602V16.1075C162.602 15.4451 162.583 14.7267 162.542 13.9491H164.051L164.132 15.1283H164.179C164.381 14.7619 164.68 14.4595 165.07 14.2179C165.538 13.9363 166.058 13.7939 166.631 13.7939C167.351 13.7939 167.952 14.0211 168.429 14.4771C169.025 15.0355 169.321 15.8691 169.321 16.9763V21.4947Z" fill="white"/>
<path d="M180.893 15.2028H178.999V18.8668C178.999 19.798 179.336 20.2636 180.002 20.2636C180.31 20.2636 180.566 20.238 180.768 20.1852L180.813 21.4572C180.473 21.582 180.027 21.6444 179.477 21.6444C178.797 21.6444 178.269 21.4428 177.887 21.0396C177.503 20.6364 177.312 19.958 177.312 19.006V15.2028H176.182V13.9468H177.312V12.5644L178.998 12.0684V13.9452H180.891V15.2028H180.893Z" fill="white"/>
<path d="M190.003 21.4925H188.281V17.2045C188.281 15.8525 187.763 15.1757 186.724 15.1757C185.926 15.1757 185.381 15.5677 185.083 16.3517C185.032 16.5165 185.002 16.7181 185.002 16.9549V21.4909H183.284V10.4893H185.002V15.0349H185.035C185.577 14.2077 186.353 13.7949 187.359 13.7949C188.071 13.7949 188.66 14.0221 189.128 14.4781C189.71 15.0461 190.003 15.8909 190.003 17.0077V21.4925Z" fill="white"/>
<path d="M199.388 17.3646C199.388 17.6654 199.365 17.9182 199.324 18.1246H194.166C194.189 18.8702 194.435 19.4382 194.913 19.8318C195.349 20.1838 195.912 20.3598 196.601 20.3598C197.364 20.3598 198.06 20.2414 198.687 20.003L198.956 21.1678C198.223 21.4782 197.359 21.6334 196.36 21.6334C195.162 21.6334 194.219 21.2894 193.536 20.6014C192.85 19.9134 192.51 18.9902 192.51 17.8318C192.51 16.6942 192.827 15.747 193.465 14.9918C194.132 14.1854 195.033 13.7822 196.17 13.7822C197.282 13.7822 198.127 14.1854 198.699 14.9918C199.16 15.6318 199.388 16.4238 199.388 17.3646ZM197.747 16.931C197.76 16.4334 197.647 16.0046 197.414 15.643C197.115 15.1774 196.66 14.9438 196.045 14.9438C195.484 14.9438 195.026 15.171 194.676 15.627C194.391 15.9902 194.222 16.4238 194.166 16.931H197.747Z" fill="white"/>
</svg>

