<svg width="339" height="80" viewBox="0 0 339 80" fill="none" xmlns="http://www.w3.org/2000/svg">
<path d="M30.914 0C32.435 0 33.975 0.0761905 35.534 0.228571C37.093 0.380952 38.5 0.742857 39.7548 1.31429C41.0096 1.88571 42.0362 2.74286 42.8348 3.88571C43.6333 4.99048 44.0325 6.51429 44.0325 8.45714C44.0325 10.4 43.6333 11.9429 42.8348 13.0857C42.0362 14.1905 41.0096 15.0286 39.7548 15.6C38.5 16.1714 37.093 16.5333 35.534 16.6857C33.975 16.8381 32.435 16.9143 30.914 16.9143H17.3392V31.7714H24.5259C26.0089 31.7714 27.5298 31.8286 29.0889 31.9429C30.6479 32.0571 32.0548 32.381 33.3096 32.9143C34.5644 33.4476 35.5911 34.2857 36.3896 35.4286C37.2261 36.5714 37.6444 38.1714 37.6444 40.2286C37.6444 42.2857 37.2451 43.8857 36.4466 45.0286C35.6481 46.1714 34.6214 47.0095 33.3666 47.5429C32.1118 48.0762 30.7049 48.4 29.1459 48.5143C27.5869 48.6286 26.0469 48.6857 24.5259 48.6857H17.3392V66.8571C17.3392 68.5333 17.2822 70.1524 17.1681 71.7143C17.0921 73.2762 16.7689 74.6857 16.1985 75.9429C15.6662 77.1619 14.8106 78.1524 13.6318 78.9143C12.4531 79.6381 10.799 80 8.66962 80C6.50221 80 4.82913 79.6381 3.65037 78.9143C2.4716 78.1524 1.61605 77.1619 1.0837 75.9429C0.551357 74.6857 0.228148 73.2762 0.114074 71.7143C0.0380246 70.1524 0 68.5333 0 66.8571V13.1429C0 11.5048 0.0380246 9.90476 0.114074 8.34286C0.228148 6.78095 0.551357 5.39048 1.0837 4.17143C1.61605 2.91429 2.4716 1.90476 3.65037 1.14286C4.82913 0.380952 6.50221 0 8.66962 0H30.914Z" fill="#0F0F0F"/>
<path d="M52.2459 35.8857C52.2459 34.2476 52.3409 32.6476 52.531 31.0857C52.7212 29.5238 53.1204 28.1333 53.7288 26.9143C54.3752 25.6952 55.2688 24.7238 56.4096 24C57.5883 23.2381 59.1663 22.8571 61.1436 22.8571C63.0829 22.8571 64.6229 23.2381 65.7636 24C66.9044 24.7238 67.7789 25.6952 68.3873 26.9143C68.9957 28.1333 69.376 29.5238 69.5281 31.0857C69.7182 32.6476 69.8132 34.2476 69.8132 35.8857V58.1714C69.8132 59.2762 69.8513 60.3429 69.9273 61.3714C70.0414 62.3619 70.2695 63.2571 70.6118 64.0571C70.954 64.819 71.4483 65.4476 72.0947 65.9429C72.7792 66.4 73.6918 66.6286 74.8325 66.6286C76.3535 66.6286 77.5893 66.1143 78.5399 65.0857C79.5285 64.0571 80.289 62.6476 80.8214 60.8571C81.3918 59.0667 81.772 56.9714 81.9621 54.5714C82.1522 52.1333 82.2473 49.5238 82.2473 46.7429V35.8857C82.2473 34.2476 82.3424 32.6476 82.5325 31.0857C82.7226 29.5238 83.1219 28.1333 83.7303 26.9143C84.3767 25.6952 85.2703 24.7238 86.411 24C87.5898 23.2381 89.1678 22.8571 91.1451 22.8571C93.0843 22.8571 94.6243 23.2381 95.7651 24C96.9058 24.7238 97.7804 25.6952 98.3888 26.9143C98.9972 28.1333 99.3774 29.5238 99.5295 31.0857C99.7196 32.6476 99.8147 34.2476 99.8147 35.8857V67.0857C99.8147 68.7238 99.7577 70.3238 99.6436 71.8857C99.5295 73.4095 99.1873 74.781 98.6169 76C98.0465 77.181 97.172 78.1524 95.9932 78.9143C94.8525 79.6381 93.2364 80 91.1451 80C89.0537 80 87.4187 79.6571 86.2399 78.9714C85.0611 78.2476 84.1676 77.3905 83.5592 76.4C82.9888 75.4095 82.6276 74.3619 82.4755 73.2571C82.3234 72.1524 82.2473 71.2 82.2473 70.4C81.9431 71.5048 81.4678 72.6286 80.8214 73.7714C80.175 74.9143 79.3384 75.9429 78.3118 76.8571C77.3231 77.7714 76.1253 78.5333 74.7184 79.1429C73.3115 79.7143 71.6765 80 69.8132 80C67.7219 80 65.6305 79.6571 63.5392 78.9714C61.4478 78.2857 59.5656 77.1429 57.8925 75.5429C56.2194 73.9429 54.8506 71.8476 53.7859 69.2571C52.7592 66.6667 52.2459 63.4667 52.2459 59.6571V35.8857Z" fill="#0F0F0F"/>
<path d="M161.985 66.9714C161.985 68.6095 161.89 70.2095 161.7 71.7714C161.51 73.3333 161.091 74.7238 160.445 75.9429C159.837 77.1619 158.943 78.1524 157.764 78.9143C156.624 79.6381 155.065 80 153.087 80C151.148 80 149.608 79.6381 148.467 78.9143C147.326 78.1524 146.452 77.1619 145.844 75.9429C145.235 74.7238 144.836 73.3333 144.646 71.7714C144.494 70.2095 144.418 68.6095 144.418 66.9714V44.6857C144.418 43.619 144.361 42.5714 144.246 41.5429C144.17 40.5143 143.961 39.619 143.619 38.8571C143.277 38.0571 142.764 37.4286 142.079 36.9714C141.433 36.4762 140.539 36.2286 139.398 36.2286C137.839 36.2286 136.585 36.7429 135.634 37.7714C134.683 38.8 133.923 40.2095 133.352 42C132.82 43.7905 132.459 45.9048 132.269 48.3429C132.079 50.7429 131.984 53.3333 131.984 56.1143V66.9714C131.984 68.6095 131.888 70.2095 131.698 71.7714C131.508 73.3333 131.09 74.7238 130.444 75.9429C129.835 77.1619 128.942 78.1524 127.763 78.9143C126.622 79.6381 125.063 80 123.086 80C121.147 80 119.607 79.6381 118.466 78.9143C117.325 78.1524 116.45 77.1619 115.842 75.9429C115.234 74.7238 114.834 73.3333 114.644 71.7714C114.492 70.2095 114.416 68.6095 114.416 66.9714V35.7714C114.416 34.1333 114.473 32.5524 114.587 31.0286C114.701 29.4667 115.044 28.0952 115.614 26.9143C116.184 25.6952 117.04 24.7238 118.181 24C119.359 23.2381 120.994 22.8571 123.086 22.8571C125.177 22.8571 126.812 23.219 127.991 23.9429C129.17 24.6286 130.044 25.4667 130.615 26.4571C131.223 27.4476 131.603 28.4952 131.755 29.6C131.907 30.7048 131.984 31.6571 131.984 32.4571C132.288 31.3524 132.763 30.2286 133.409 29.0857C134.056 27.9429 134.873 26.9143 135.862 26C136.889 25.0857 138.106 24.3429 139.512 23.7714C140.919 23.1619 142.554 22.8571 144.418 22.8571C146.509 22.8571 148.6 23.2 150.692 23.8857C152.783 24.5714 154.665 25.7143 156.338 27.3143C158.011 28.9143 159.361 31.0095 160.388 33.6C161.453 36.1905 161.985 39.3905 161.985 43.2V66.9714Z" fill="#0F0F0F"/>
<path d="M207.5 0C209.021 0 210.561 0.0761905 212.12 0.228571C213.679 0.380952 215.086 0.742857 216.341 1.31429C217.596 1.88571 218.623 2.74286 219.421 3.88571C220.22 4.99048 220.619 6.51429 220.619 8.45714C220.619 10.4 220.22 11.9429 219.421 13.0857C218.623 14.1905 217.596 15.0286 216.341 15.6C215.086 16.1714 213.679 16.5333 212.12 16.6857C210.561 16.8381 209.021 16.9143 207.5 16.9143H193.926V31.7714H201.112C202.595 31.7714 204.116 31.8286 205.675 31.9429C207.234 32.0571 208.641 32.381 209.896 32.9143C211.151 33.4476 212.178 34.2857 212.976 35.4286C213.813 36.5714 214.231 38.1714 214.231 40.2286C214.231 42.2857 213.832 43.8857 213.033 45.0286C212.235 46.1714 211.208 47.0095 209.953 47.5429C208.698 48.0762 207.291 48.4 205.732 48.5143C204.173 48.6286 202.633 48.6857 201.112 48.6857H193.926V66.8571C193.926 68.5333 193.869 70.1524 193.755 71.7143C193.679 73.2762 193.355 74.6857 192.785 75.9429C192.253 77.1619 191.397 78.1524 190.218 78.9143C189.04 79.6381 187.385 80 185.256 80C183.089 80 181.416 79.6381 180.237 78.9143C179.058 78.1524 178.203 77.1619 177.67 75.9429C177.138 74.6857 176.815 73.2762 176.701 71.7143C176.624 70.1524 176.586 68.5333 176.586 66.8571V13.1429C176.586 11.5048 176.624 9.90476 176.701 8.34286C176.815 6.78095 177.138 5.39048 177.67 4.17143C178.203 2.91429 179.058 1.90476 180.237 1.14286C181.416 0.380952 183.089 0 185.256 0H207.5Z" fill="#0F0F0F"/>
<path d="M228.832 35.8857C228.832 34.2476 228.927 32.6476 229.118 31.0857C229.308 29.5238 229.707 28.1333 230.315 26.9143C230.962 25.6952 231.855 24.7238 232.996 24C234.175 23.2381 235.753 22.8571 237.73 22.8571C239.669 22.8571 241.209 23.2381 242.35 24C243.491 24.7238 244.365 25.6952 244.974 26.9143C245.582 28.1333 245.962 29.5238 246.115 31.0857C246.305 32.6476 246.4 34.2476 246.4 35.8857V58.1714C246.4 59.2762 246.438 60.3429 246.514 61.3714C246.628 62.3619 246.856 63.2571 247.198 64.0571C247.54 64.819 248.035 65.4476 248.681 65.9429C249.366 66.4 250.278 66.6286 251.419 66.6286C252.94 66.6286 254.176 66.1143 255.126 65.0857C256.115 64.0571 256.875 62.6476 257.408 60.8571C257.978 59.0667 258.358 56.9714 258.549 54.5714C258.739 52.1333 258.834 49.5238 258.834 46.7429V35.8857C258.834 34.2476 258.929 32.6476 259.119 31.0857C259.309 29.5238 259.708 28.1333 260.317 26.9143C260.963 25.6952 261.857 24.7238 262.997 24C264.176 23.2381 265.754 22.8571 267.732 22.8571C269.671 22.8571 271.211 23.2381 272.352 24C273.492 24.7238 274.367 25.6952 274.975 26.9143C275.584 28.1333 275.964 29.5238 276.116 31.0857C276.306 32.6476 276.401 34.2476 276.401 35.8857V67.0857C276.401 68.7238 276.344 70.3238 276.23 71.8857C276.116 73.4095 275.774 74.781 275.203 76C274.633 77.181 273.758 78.1524 272.58 78.9143C271.439 79.6381 269.823 80 267.732 80C265.64 80 264.005 79.6571 262.826 78.9714C261.648 78.2476 260.754 77.3905 260.146 76.4C259.575 75.4095 259.214 74.3619 259.062 73.2571C258.91 72.1524 258.834 71.2 258.834 70.4C258.53 71.5048 258.054 72.6286 257.408 73.7714C256.761 74.9143 255.925 75.9429 254.898 76.8571C253.91 77.7714 252.712 78.5333 251.305 79.1429C249.898 79.7143 248.263 80 246.4 80C244.308 80 242.217 79.6571 240.126 78.9714C238.034 78.2857 236.152 77.1429 234.479 75.5429C232.806 73.9429 231.437 71.8476 230.372 69.2571C229.346 66.6667 228.832 63.4667 228.832 59.6571V35.8857Z" fill="#0F0F0F"/>
<path d="M338.571 66.9714C338.571 68.6095 338.476 70.2095 338.286 71.7714C338.096 73.3333 337.678 74.7238 337.031 75.9429C336.423 77.1619 335.529 78.1524 334.351 78.9143C333.21 79.6381 331.651 80 329.674 80C327.734 80 326.194 79.6381 325.054 78.9143C323.913 78.1524 323.038 77.1619 322.43 75.9429C321.822 74.7238 321.422 73.3333 321.232 71.7714C321.08 70.2095 321.004 68.6095 321.004 66.9714V44.6857C321.004 43.619 320.947 42.5714 320.833 41.5429C320.757 40.5143 320.548 39.619 320.206 38.8571C319.863 38.0571 319.35 37.4286 318.666 36.9714C318.019 36.4762 317.126 36.2286 315.985 36.2286C314.426 36.2286 313.171 36.7429 312.22 37.7714C311.27 38.8 310.509 40.2095 309.939 42C309.407 43.7905 309.045 45.9048 308.855 48.3429C308.665 50.7429 308.57 53.3333 308.57 56.1143V66.9714C308.57 68.6095 308.475 70.2095 308.285 71.7714C308.095 73.3333 307.676 74.7238 307.03 75.9429C306.422 77.1619 305.528 78.1524 304.349 78.9143C303.209 79.6381 301.65 80 299.672 80C297.733 80 296.193 79.6381 295.052 78.9143C293.911 78.1524 293.037 77.1619 292.429 75.9429C291.82 74.7238 291.421 73.3333 291.231 71.7714C291.079 70.2095 291.003 68.6095 291.003 66.9714V35.7714C291.003 34.1333 291.06 32.5524 291.174 31.0286C291.288 29.4667 291.63 28.0952 292.2 26.9143C292.771 25.6952 293.626 24.7238 294.767 24C295.946 23.2381 297.581 22.8571 299.672 22.8571C301.764 22.8571 303.399 23.219 304.577 23.9429C305.756 24.6286 306.631 25.4667 307.201 26.4571C307.81 27.4476 308.19 28.4952 308.342 29.6C308.494 30.7048 308.57 31.6571 308.57 32.4571C308.874 31.3524 309.35 30.2286 309.996 29.0857C310.642 27.9429 311.46 26.9143 312.449 26C313.475 25.0857 314.692 24.3429 316.099 23.7714C317.506 23.1619 319.141 22.8571 321.004 22.8571C323.095 22.8571 325.187 23.2 327.278 23.8857C329.369 24.5714 331.252 25.7143 332.925 27.3143C334.598 28.9143 335.948 31.0095 336.974 33.6C338.039 36.1905 338.571 39.3905 338.571 43.2V66.9714Z" fill="#0F0F0F"/>
</svg>

