<svg width="29" height="28" viewBox="0 0 29 28" fill="none" xmlns="http://www.w3.org/2000/svg">
<path d="M1.21922 24.0103C0.352999 24.8763 0.31175 26.4227 1.23984 27.3093C2.12668 28.2371 3.69412 28.1959 4.56034 27.3299L14.5631 17.3299L24.5659 27.3299C25.4527 28.2165 26.9789 28.2371 27.8657 27.3093C28.7938 26.4227 28.7732 24.8763 27.8864 23.9897L17.8836 13.9897L27.8864 4.01031C28.7732 3.10309 28.7938 1.57732 27.8657 0.690722C26.9789 -0.237113 25.4527 -0.216495 24.5659 0.670103L14.5631 10.6701L4.56034 0.670103C3.69412 -0.195876 2.12668 -0.237113 1.23984 0.690722C0.31175 1.57732 0.352999 3.12371 1.21922 3.98969L11.222 13.9897L1.21922 24.0103Z" fill="white"/>
</svg>
