<svg width="221" height="64" viewBox="0 0 221 64" fill="none" xmlns="http://www.w3.org/2000/svg">
<path d="M212.332 64H8.62862C4.14917 64 0.480469 60.4181 0.480469 56.0446V8.31236C0.480469 3.9389 4.14917 0.356985 8.62862 0.356985H212.332C216.812 0.356985 220.48 3.9389 220.48 8.31236V56.0446C220.48 60.4181 216.812 64 212.332 64Z" fill="black"/>
<path d="M212.332 1.282C216.105 1.282 219.175 4.29601 219.175 8V56C219.175 59.704 216.105 62.718 212.332 62.718H8.62862C4.85602 62.718 1.78621 59.704 1.78621 56V8C1.78621 4.29601 4.85602 1.282 8.62862 1.282H212.332ZM212.332 3.38236e-06H8.62862C4.14917 3.38236e-06 0.480469 3.602 0.480469 8V56C0.480469 60.398 4.14917 64 8.62862 64H212.332C216.812 64 220.48 60.398 220.48 56V8C220.48 3.602 216.812 3.38236e-06 212.332 3.38236e-06Z" fill="#A6A6A6"/>
<path d="M77.7553 16.6561C77.7553 17.9847 77.3479 19.0487 76.5453 19.8423C75.6225 20.783 74.4207 21.2563 72.9479 21.2563C71.5403 21.2563 70.3384 20.775 69.3525 19.8263C68.3645 18.8637 67.8716 17.6824 67.8716 16.2683C67.8716 14.8542 68.3645 13.6729 69.3525 12.7182C70.3384 11.7616 71.5403 11.2803 72.9479 11.2803C73.6486 11.2803 74.3168 11.4215 74.9544 11.684C75.5899 11.9485 76.1073 12.3065 76.4821 12.748L75.6307 13.5873C74.9768 12.8336 74.0866 12.4616 72.9479 12.4616C71.9212 12.4616 71.031 12.8117 70.2753 13.5177C69.5277 14.2258 69.1529 15.1426 69.1529 16.2683C69.1529 17.394 69.5277 18.3188 70.2753 19.0268C71.031 19.7249 71.9212 20.0829 72.9479 20.0829C74.0377 20.0829 74.9544 19.7249 75.6775 19.0189C76.1542 18.5515 76.4251 17.9071 76.4964 17.0837H72.9479V15.9342H77.682C77.739 16.1828 77.7553 16.4234 77.7553 16.6561Z" fill="white" stroke="white" stroke-width="0.16" stroke-miterlimit="10"/>
<path d="M85.2629 12.6695H80.816V15.6925H84.8249V16.8421H80.816V19.8651H85.2629V21.0365H79.5571V11.498H85.2629V12.6695Z" fill="white" stroke="white" stroke-width="0.16" stroke-miterlimit="10"/>
<path d="M90.5656 21.0365H89.3067V12.6695H86.5791V11.498H93.2952V12.6695H90.5656V21.0365Z" fill="white" stroke="white" stroke-width="0.16" stroke-miterlimit="10"/>
<path d="M98.1548 21.0365V11.498H99.4116V21.0365H98.1548Z" fill="white" stroke="white" stroke-width="0.16" stroke-miterlimit="10"/>
<path d="M104.985 21.0365H103.736V12.6695H100.998V11.498H107.722V12.6695H104.985V21.0365Z" fill="white" stroke="white" stroke-width="0.16" stroke-miterlimit="10"/>
<path d="M120.432 19.8104C119.469 20.775 118.275 21.2563 116.851 21.2563C115.419 21.2563 114.225 20.775 113.262 19.8104C112.3 18.8478 111.822 17.6665 111.822 16.2683C111.822 14.8701 112.3 13.6888 113.262 12.7262C114.225 11.7616 115.419 11.2803 116.851 11.2803C118.267 11.2803 119.461 11.7616 120.424 12.7341C121.394 13.7047 121.873 14.8781 121.873 16.2683C121.873 17.6665 121.394 18.8478 120.432 19.8104ZM114.193 19.0109C114.918 19.7249 115.8 20.0829 116.851 20.0829C117.894 20.0829 118.784 19.7249 119.501 19.0109C120.225 18.2969 120.591 17.3801 120.591 16.2683C120.591 15.1565 120.225 14.2397 119.501 13.5257C118.784 12.8117 117.894 12.4537 116.851 12.4537C115.8 12.4537 114.918 12.8117 114.193 13.5257C113.47 14.2397 113.103 15.1565 113.103 16.2683C113.103 17.3801 113.47 18.2969 114.193 19.0109Z" fill="white" stroke="white" stroke-width="0.16" stroke-miterlimit="10"/>
<path d="M123.643 21.0365V11.498H125.17L129.921 18.9164H129.976L129.921 17.0827V11.498H131.178V21.0365H129.866L124.891 13.2522H124.836L124.891 15.0939V21.0365H123.643Z" fill="white" stroke="white" stroke-width="0.16" stroke-miterlimit="10"/>
<path d="M111.517 34.9642C107.689 34.9642 104.562 37.8083 104.562 41.7323C104.562 45.6244 107.689 48.4983 111.517 48.4983C115.352 48.4983 118.479 45.6244 118.479 41.7323C118.479 37.8083 115.352 34.9642 111.517 34.9642ZM111.517 45.8333C109.416 45.8333 107.61 44.1407 107.61 41.7323C107.61 39.2919 109.416 37.6293 111.517 37.6293C113.617 37.6293 115.432 39.2919 115.432 41.7323C115.432 44.1407 113.617 45.8333 111.517 45.8333ZM96.3427 34.9642C92.507 34.9642 89.3883 37.8083 89.3883 41.7323C89.3883 45.6244 92.507 48.4983 96.3427 48.4983C100.176 48.4983 103.297 45.6244 103.297 41.7323C103.297 37.8083 100.176 34.9642 96.3427 34.9642ZM96.3427 45.8333C94.2405 45.8333 92.4276 44.1407 92.4276 41.7323C92.4276 39.2919 94.2405 37.6293 96.3427 37.6293C98.4429 37.6293 100.25 39.2919 100.25 41.7323C100.25 44.1407 98.4429 45.8333 96.3427 45.8333ZM78.2864 37.0386V39.9145H85.3203C85.1146 41.5214 84.5646 42.7028 83.7213 43.5262C82.6946 44.5206 81.0955 45.6244 78.2864 45.6244C73.9577 45.6244 70.5681 42.2136 70.5681 37.9873C70.5681 33.761 73.9577 30.3501 78.2864 30.3501C80.627 30.3501 82.33 31.2431 83.5868 32.4006L85.6626 30.374C83.9046 28.7352 81.5661 27.4762 78.2864 27.4762C72.3505 27.4762 67.3618 32.1918 67.3618 37.9873C67.3618 43.7828 72.3505 48.4983 78.2864 48.4983C81.4948 48.4983 83.9046 47.4721 85.799 45.5469C87.7403 43.6515 88.3453 40.9864 88.3453 38.8345C88.3453 38.1663 88.2883 37.5517 88.1864 37.0386H78.2864ZM152.121 39.2681C151.548 37.7546 149.782 34.9642 146.185 34.9642C142.62 34.9642 139.652 37.7068 139.652 41.7323C139.652 45.523 142.59 48.4983 146.527 48.4983C149.711 48.4983 151.548 46.6029 152.304 45.4991L149.941 43.9618C149.153 45.0874 148.079 45.8333 146.527 45.8333C144.985 45.8333 143.879 45.1431 143.17 43.7828L152.441 40.0378L152.121 39.2681ZM142.669 41.5214C142.59 38.9121 144.745 37.5756 146.289 37.5756C147.499 37.5756 148.526 38.1663 148.868 39.0115L142.669 41.5214ZM135.134 48.0866H138.181V28.1982H135.134V48.0866ZM130.143 36.4718H130.041C129.357 35.6802 128.051 34.9642 126.397 34.9642C122.926 34.9642 119.752 37.9395 119.752 41.7541C119.752 45.5469 122.926 48.4983 126.397 48.4983C128.051 48.4983 129.357 47.7764 130.041 46.9609H130.143V47.9315C130.143 50.519 128.728 51.9092 126.444 51.9092C124.582 51.9092 123.427 50.5965 122.951 49.4927L120.3 50.5727C121.064 52.3666 123.087 54.5742 126.444 54.5742C130.017 54.5742 133.032 52.5217 133.032 47.5277V35.3759H130.143V36.4718ZM126.658 45.8333C124.558 45.8333 122.8 44.1169 122.8 41.7541C122.8 39.3695 124.558 37.6293 126.658 37.6293C128.728 37.6293 130.359 39.3695 130.359 41.7541C130.359 44.1169 128.728 45.8333 126.658 45.8333ZM166.388 28.1982H159.1V48.0866H162.139V40.5509H166.388C169.764 40.5509 173.074 38.1663 173.074 34.3735C173.074 30.5828 169.755 28.1982 166.388 28.1982ZM166.468 37.7844H162.139V30.9647H166.468C168.737 30.9647 170.033 32.8043 170.033 34.3735C170.033 35.9129 168.737 37.7844 166.468 37.7844ZM185.255 34.9264C183.059 34.9264 180.776 35.8731 179.837 37.9714L182.534 39.0752C183.114 37.9714 184.182 37.6134 185.31 37.6134C186.887 37.6134 188.486 38.5382 188.51 40.171V40.3798C187.96 40.0696 186.783 39.6102 185.335 39.6102C182.43 39.6102 179.47 41.1714 179.47 44.0851C179.47 46.7501 181.849 48.4665 184.524 48.4665C186.569 48.4665 187.698 47.5655 188.407 46.5174H188.51V48.0548H191.446V40.4256C191.446 36.8994 188.749 34.9264 185.255 34.9264ZM184.889 45.8253C183.895 45.8253 182.509 45.344 182.509 44.1407C182.509 42.6014 184.237 42.0107 185.732 42.0107C187.07 42.0107 187.698 42.2991 188.51 42.6789C188.272 44.5206 186.649 45.8253 184.889 45.8253ZM202.14 35.362L198.647 43.9836H198.543L194.931 35.362H191.654L197.08 47.4104L193.984 54.1148H197.16L205.522 35.362H202.14ZM174.744 48.0866H177.792V28.1982H174.744V48.0866Z" fill="white"/>
<path d="M17.4852 12.3521C17.0065 12.8414 16.7295 13.6031 16.7295 14.5896V49.7762C16.7295 50.7627 17.0065 51.5244 17.4852 52.0137L17.6034 52.1211L37.7986 32.4116V31.9462L17.6034 12.2368L17.4852 12.3521Z" fill="url(#paint0_linear_8465_20735)"/>
<path d="M44.5211 38.9844L37.7969 32.4112V31.9459L44.5293 25.3727L44.68 25.4582L52.653 29.8874C54.9284 31.1443 54.9284 33.2127 52.653 34.4777L44.68 38.8989L44.5211 38.9844Z" fill="url(#paint1_linear_8465_20735)"/>
<path d="M44.6833 38.9005L37.8002 32.1802L17.4868 52.0149C18.2426 52.7906 19.475 52.8841 20.8764 52.1084L44.6833 38.9005Z" fill="url(#paint2_linear_8465_20735)"/>
<path d="M44.6838 25.4584L20.8769 12.2505C19.4755 11.4828 18.243 11.5763 17.4873 12.3519L37.8006 32.1787L44.6838 25.4584Z" fill="url(#paint3_linear_8465_20735)"/>
<defs>
<linearGradient id="paint0_linear_8465_20735" x1="36.0055" y1="50.1427" x2="9.31105" y2="22.8014" gradientUnits="userSpaceOnUse">
<stop stop-color="#00A0FF"/>
<stop offset="0.0066" stop-color="#00A1FF"/>
<stop offset="0.2601" stop-color="#00BEFF"/>
<stop offset="0.5122" stop-color="#00D2FF"/>
<stop offset="0.7604" stop-color="#00DFFF"/>
<stop offset="1" stop-color="#00E3FF"/>
</linearGradient>
<linearGradient id="paint1_linear_8465_20735" x1="55.6159" y1="32.1763" x2="16.1839" y2="32.1763" gradientUnits="userSpaceOnUse">
<stop stop-color="#FFE000"/>
<stop offset="0.4087" stop-color="#FFBD00"/>
<stop offset="0.7754" stop-color="#FFA500"/>
<stop offset="1" stop-color="#FF9C00"/>
</linearGradient>
<linearGradient id="paint2_linear_8465_20735" x1="40.9404" y1="28.5269" x2="4.74064" y2="-8.55007" gradientUnits="userSpaceOnUse">
<stop stop-color="#FF3A44"/>
<stop offset="1" stop-color="#C31162"/>
</linearGradient>
<linearGradient id="paint3_linear_8465_20735" x1="12.374" y1="63.7199" x2="28.5388" y2="47.1635" gradientUnits="userSpaceOnUse">
<stop stop-color="#32A071"/>
<stop offset="0.0685" stop-color="#2DA771"/>
<stop offset="0.4762" stop-color="#15CF74"/>
<stop offset="0.8009" stop-color="#06E775"/>
<stop offset="1" stop-color="#00F076"/>
</linearGradient>
</defs>
</svg>
