<svg width="948" height="224" viewBox="0 0 948 224" fill="none" xmlns="http://www.w3.org/2000/svg">
<path d="M86.5593 0C90.8181 0 95.1301 0.213333 99.4953 0.64C103.861 1.06667 107.8 2.08 111.313 3.68C114.827 5.28 117.701 7.68 119.937 10.88C122.173 13.9733 123.291 18.24 123.291 23.68C123.291 29.12 122.173 33.44 119.937 36.64C117.701 39.7333 114.827 42.08 111.313 43.68C107.8 45.28 103.861 46.2933 99.4953 46.72C95.1301 47.1467 90.8181 47.36 86.5593 47.36H48.5499V88.96H68.6725C72.8248 88.96 77.0836 89.12 81.4488 89.44C85.814 89.76 89.7534 90.6667 93.2668 92.16C96.7803 93.6533 99.655 96 101.891 99.2C104.233 102.4 105.404 106.88 105.404 112.64C105.404 118.4 104.286 122.88 102.051 126.08C99.8147 129.28 96.94 131.627 93.4265 133.12C89.9131 134.613 85.9737 135.52 81.6085 135.84C77.2433 136.16 72.9313 136.32 68.6725 136.32H48.5499V187.2C48.5499 191.893 48.3902 196.427 48.0708 200.8C47.8578 205.173 46.9528 209.12 45.3558 212.64C43.8652 216.053 41.4697 218.827 38.1691 220.96C34.8686 222.987 30.2372 224 24.2749 224C18.2062 224 13.5216 222.987 10.221 220.96C6.92049 218.827 4.52493 216.053 3.03437 212.64C1.5438 209.12 0.638814 205.173 0.319407 200.8C0.106469 196.427 0 191.893 0 187.2V36.8C0 32.2133 0.106469 27.7333 0.319407 23.36C0.638814 18.9867 1.5438 15.0933 3.03437 11.68C4.52493 8.16 6.92049 5.33333 10.221 3.2C13.5216 1.06667 18.2062 0 24.2749 0H86.5593Z" fill="white"/>
<path d="M146.288 100.48C146.288 95.8933 146.555 91.4133 147.087 87.04C147.619 82.6667 148.737 78.7733 150.441 75.36C152.251 71.9467 154.753 69.2267 157.947 67.2C161.247 65.0667 165.666 64 171.202 64C176.632 64 180.944 65.0667 184.138 67.2C187.332 69.2267 189.781 71.9467 191.485 75.36C193.188 78.7733 194.253 82.6667 194.679 87.04C195.211 91.4133 195.477 95.8933 195.477 100.48V162.88C195.477 165.973 195.584 168.96 195.796 171.84C196.116 174.613 196.755 177.12 197.713 179.36C198.671 181.493 200.055 183.253 201.865 184.64C203.782 185.92 206.337 186.56 209.531 186.56C213.79 186.56 217.25 185.12 219.912 182.24C222.68 179.36 224.809 175.413 226.3 170.4C227.897 165.387 228.962 159.52 229.494 152.8C230.026 145.973 230.292 138.667 230.292 130.88V100.48C230.292 95.8933 230.559 91.4133 231.091 87.04C231.623 82.6667 232.741 78.7733 234.445 75.36C236.255 71.9467 238.757 69.2267 241.951 67.2C245.251 65.0667 249.67 64 255.206 64C260.636 64 264.948 65.0667 268.142 67.2C271.336 69.2267 273.785 71.9467 275.489 75.36C277.192 78.7733 278.257 82.6667 278.683 87.04C279.215 91.4133 279.481 95.8933 279.481 100.48V187.84C279.481 192.427 279.321 196.907 279.002 201.28C278.683 205.547 277.724 209.387 276.127 212.8C274.53 216.107 272.082 218.827 268.781 220.96C265.587 222.987 261.062 224 255.206 224C249.35 224 244.772 223.04 241.472 221.12C238.171 219.093 235.669 216.693 233.966 213.92C232.369 211.147 231.357 208.213 230.931 205.12C230.505 202.027 230.292 199.36 230.292 197.12C229.441 200.213 228.11 203.36 226.3 206.56C224.49 209.76 222.148 212.64 219.273 215.2C216.505 217.76 213.151 219.893 209.212 221.6C205.272 223.2 200.694 224 195.477 224C189.621 224 183.765 223.04 177.91 221.12C172.054 219.2 166.784 216 162.099 211.52C157.414 207.04 153.582 201.173 150.6 193.92C147.726 186.667 146.288 177.707 146.288 167.04V100.48Z" fill="white"/>
<path d="M453.558 187.52C453.558 192.107 453.292 196.587 452.759 200.96C452.227 205.333 451.056 209.227 449.246 212.64C447.542 216.053 445.04 218.827 441.74 220.96C438.546 222.987 434.181 224 428.644 224C423.214 224 418.902 222.987 415.708 220.96C412.514 218.827 410.065 216.053 408.362 212.64C406.658 209.227 405.54 205.333 405.008 200.96C404.582 196.587 404.369 192.107 404.369 187.52V125.12C404.369 122.133 404.21 119.2 403.89 116.32C403.677 113.44 403.092 110.933 402.133 108.8C401.175 106.56 399.738 104.8 397.821 103.52C396.011 102.133 393.509 101.44 390.315 101.44C385.95 101.44 382.437 102.88 379.775 105.76C377.113 108.64 374.984 112.587 373.387 117.6C371.896 122.613 370.885 128.533 370.352 135.36C369.82 142.08 369.554 149.333 369.554 157.12V187.52C369.554 192.107 369.288 196.587 368.755 200.96C368.223 205.333 367.052 209.227 365.242 212.64C363.538 216.053 361.036 218.827 357.736 220.96C354.542 222.987 350.177 224 344.64 224C339.21 224 334.898 222.987 331.704 220.96C328.51 218.827 326.061 216.053 324.358 212.64C322.654 209.227 321.536 205.333 321.004 200.96C320.578 196.587 320.365 192.107 320.365 187.52V100.16C320.365 95.5733 320.525 91.1467 320.844 86.88C321.164 82.5067 322.122 78.6667 323.719 75.36C325.316 71.9467 327.712 69.2267 330.906 67.2C334.206 65.0667 338.784 64 344.64 64C350.496 64 355.074 65.0133 358.375 67.04C361.675 68.96 364.124 71.3067 365.721 74.08C367.425 76.8533 368.489 79.7867 368.915 82.88C369.341 85.9733 369.554 88.64 369.554 90.88C370.406 87.7867 371.737 84.64 373.546 81.44C375.356 78.24 377.646 75.36 380.414 72.8C383.288 70.24 386.695 68.16 390.635 66.56C394.574 64.8533 399.152 64 404.369 64C410.225 64 416.081 64.96 421.937 66.88C427.792 68.8 433.063 72 437.747 76.48C442.432 80.96 446.212 86.8267 449.086 94.08C452.067 101.333 453.558 110.293 453.558 120.96V187.52Z" fill="white"/>
<path d="M581.001 0C585.26 0 589.572 0.213333 593.937 0.64C598.303 1.06667 602.242 2.08 605.755 3.68C609.269 5.28 612.144 7.68 614.379 10.88C616.615 13.9733 617.733 18.24 617.733 23.68C617.733 29.12 616.615 33.44 614.379 36.64C612.144 39.7333 609.269 42.08 605.755 43.68C602.242 45.28 598.303 46.2933 593.937 46.72C589.572 47.1467 585.26 47.36 581.001 47.36H542.992V88.96H563.115C567.267 88.96 571.526 89.12 575.891 89.44C580.256 89.76 584.195 90.6667 587.709 92.16C591.222 93.6533 594.097 96 596.333 99.2C598.675 102.4 599.846 106.88 599.846 112.64C599.846 118.4 598.728 122.88 596.493 126.08C594.257 129.28 591.382 131.627 587.869 133.12C584.355 134.613 580.416 135.52 576.051 135.84C571.685 136.16 567.373 136.32 563.115 136.32H542.992V187.2C542.992 191.893 542.832 196.427 542.513 200.8C542.3 205.173 541.395 209.12 539.798 212.64C538.307 216.053 535.912 218.827 532.611 220.96C529.311 222.987 524.679 224 518.717 224C512.648 224 507.964 222.987 504.663 220.96C501.363 218.827 498.967 216.053 497.476 212.64C495.986 209.12 495.081 205.173 494.761 200.8C494.549 196.427 494.442 191.893 494.442 187.2V36.8C494.442 32.2133 494.549 27.7333 494.761 23.36C495.081 18.9867 495.986 15.0933 497.476 11.68C498.967 8.16 501.363 5.33333 504.663 3.2C507.964 1.06667 512.648 0 518.717 0H581.001Z" fill="white"/>
<path d="M640.73 100.48C640.73 95.8933 640.997 91.4133 641.529 87.04C642.061 82.6667 643.179 78.7733 644.883 75.36C646.693 71.9467 649.195 69.2267 652.389 67.2C655.689 65.0667 660.108 64 665.644 64C671.074 64 675.386 65.0667 678.58 67.2C681.774 69.2267 684.223 71.9467 685.927 75.36C687.63 78.7733 688.695 82.6667 689.121 87.04C689.653 91.4133 689.919 95.8933 689.919 100.48V162.88C689.919 165.973 690.026 168.96 690.239 171.84C690.558 174.613 691.197 177.12 692.155 179.36C693.113 181.493 694.497 183.253 696.307 184.64C698.224 185.92 700.779 186.56 703.973 186.56C708.232 186.56 711.692 185.12 714.354 182.24C717.122 179.36 719.251 175.413 720.742 170.4C722.339 165.387 723.404 159.52 723.936 152.8C724.468 145.973 724.734 138.667 724.734 130.88V100.48C724.734 95.8933 725.001 91.4133 725.533 87.04C726.065 82.6667 727.183 78.7733 728.887 75.36C730.697 71.9467 733.199 69.2267 736.393 67.2C739.693 65.0667 744.112 64 749.648 64C755.078 64 759.39 65.0667 762.584 67.2C765.778 69.2267 768.227 71.9467 769.931 75.36C771.634 78.7733 772.699 82.6667 773.125 87.04C773.657 91.4133 773.923 95.8933 773.923 100.48V187.84C773.923 192.427 773.763 196.907 773.444 201.28C773.125 205.547 772.166 209.387 770.569 212.8C768.972 216.107 766.524 218.827 763.223 220.96C760.029 222.987 755.504 224 749.648 224C743.792 224 739.214 223.04 735.914 221.12C732.613 219.093 730.111 216.693 728.408 213.92C726.811 211.147 725.799 208.213 725.373 205.12C724.947 202.027 724.734 199.36 724.734 197.12C723.883 200.213 722.552 203.36 720.742 206.56C718.932 209.76 716.59 212.64 713.715 215.2C710.947 217.76 707.593 219.893 703.654 221.6C699.714 223.2 695.136 224 689.919 224C684.063 224 678.208 223.04 672.352 221.12C666.496 219.2 661.226 216 656.541 211.52C651.856 207.04 648.024 201.173 645.042 193.92C642.168 186.667 640.73 177.707 640.73 167.04V100.48Z" fill="white"/>
<path d="M948 187.52C948 192.107 947.734 196.587 947.201 200.96C946.669 205.333 945.498 209.227 943.688 212.64C941.984 216.053 939.482 218.827 936.182 220.96C932.988 222.987 928.623 224 923.086 224C917.656 224 913.344 222.987 910.15 220.96C906.956 218.827 904.507 216.053 902.804 212.64C901.1 209.227 899.982 205.333 899.45 200.96C899.024 196.587 898.811 192.107 898.811 187.52V125.12C898.811 122.133 898.652 119.2 898.332 116.32C898.119 113.44 897.534 110.933 896.575 108.8C895.617 106.56 894.18 104.8 892.263 103.52C890.454 102.133 887.951 101.44 884.757 101.44C880.392 101.44 876.879 102.88 874.217 105.76C871.555 108.64 869.426 112.587 867.829 117.6C866.338 122.613 865.327 128.533 864.794 135.36C864.262 142.08 863.996 149.333 863.996 157.12V187.52C863.996 192.107 863.73 196.587 863.197 200.96C862.665 205.333 861.494 209.227 859.684 212.64C857.98 216.053 855.478 218.827 852.178 220.96C848.984 222.987 844.619 224 839.082 224C833.652 224 829.34 222.987 826.146 220.96C822.952 218.827 820.503 216.053 818.8 212.64C817.096 209.227 815.978 205.333 815.446 200.96C815.02 196.587 814.807 192.107 814.807 187.52V100.16C814.807 95.5733 814.967 91.1467 815.286 86.88C815.606 82.5067 816.564 78.6667 818.161 75.36C819.758 71.9467 822.154 69.2267 825.348 67.2C828.648 65.0667 833.226 64 839.082 64C844.938 64 849.516 65.0133 852.817 67.04C856.117 68.96 858.566 71.3067 860.163 74.08C861.867 76.8533 862.931 79.7867 863.357 82.88C863.783 85.9733 863.996 88.64 863.996 90.88C864.848 87.7867 866.179 84.64 867.989 81.44C869.799 78.24 872.088 75.36 874.856 72.8C877.73 70.24 881.137 68.16 885.077 66.56C889.016 64.8533 893.594 64 898.811 64C904.667 64 910.523 64.96 916.379 66.88C922.234 68.8 927.505 72 932.189 76.48C936.874 80.96 940.654 86.8267 943.528 94.08C946.509 101.333 948 110.293 948 120.96V187.52Z" fill="white"/>
</svg>
